<svg width="100" height="100" viewBox="0 0 100 100" fill="none" xmlns="http://www.w3.org/2000/svg">
<path d="M0 20C0 8.9543 8.95431 0 20 0H80C91.0457 0 100 8.95431 100 20V80C100 91.0457 91.0457 100 80 100H20C8.9543 100 0 91.0457 0 80V20Z" fill="black"/>
<path fill-rule="evenodd" clip-rule="evenodd" d="M37.8939 21.0006C39.0584 20.9725 40.0253 21.8872 40.0537 23.0437C40.0974 24.8258 40.121 26.7885 40.1182 28.8773C42.8081 26.4764 45.72 24.6184 48.7843 23.6574C52.1838 22.5912 55.2913 22.5369 58.0387 23.4207C60.7837 24.3037 62.9864 26.0644 64.6797 28.319C68.0178 32.7637 69.5027 39.2727 69.5431 45.8032C69.5838 52.3736 68.1672 59.3144 65.3346 64.8051C65.1631 65.1375 64.9856 65.4659 64.8021 65.7897C68.9812 68.1307 73.5465 71.5837 78.3881 76.43C79.2085 77.2512 79.2033 78.5775 78.3764 79.3923C77.5495 80.2071 76.2141 80.2019 75.3937 79.3807C70.5875 74.5697 66.2429 71.3472 62.4384 69.2617C59.7699 72.5136 56.2823 74.8256 51.9556 75.22C46.6453 75.7041 42.5621 74.4339 41.0105 71.4325C39.3321 68.1859 41.4412 64.8584 44.4986 63.2064C48.2005 61.2062 53.9243 60.8915 61.0206 63.9207C61.2122 63.5888 61.3989 63.2467 61.5805 62.8947C64.0497 58.1084 65.3623 51.8557 65.325 45.829C65.2875 39.7623 63.8872 34.2706 61.2986 30.8238C60.0286 29.1328 58.5074 27.9751 56.7389 27.4062C54.9729 26.8381 52.7772 26.7984 50.0545 27.6523C46.6995 28.7045 43.2747 31.2854 40.0388 34.9083C39.8667 41.8142 39.3968 49.4225 38.4496 56.2104C37.6798 61.7273 36.5761 66.8473 34.9895 70.629C34.1978 72.5162 33.2306 74.2065 32.0137 75.4462C30.7647 76.7186 29.1647 77.5933 27.2412 77.5558C24.9402 77.511 23.2142 76.3408 22.1979 74.4972C21.2635 72.8021 20.9619 70.6237 21.0038 68.3541C21.0882 63.7697 22.6004 57.8252 25.0134 51.8543C27.4381 45.854 30.8433 39.6515 34.857 34.5489C35.1843 34.1327 35.5169 33.7224 35.8546 33.3188C35.9254 29.5987 35.9096 26.1204 35.8368 23.1456C35.8084 21.9891 36.7294 21.0288 37.8939 21.0006ZM35.6043 40.6929C32.9676 44.6496 30.6822 49.0738 28.928 53.4147C26.6123 59.1451 25.2926 64.556 25.2212 68.4307C25.1851 70.3907 25.4747 71.7178 25.8978 72.4853C26.2391 73.1043 26.6372 73.3539 27.3239 73.3673C27.7908 73.3764 28.3301 73.1974 28.9933 72.5218C29.6885 71.8135 30.4062 70.6614 31.0958 69.0177C32.472 65.7377 33.5169 61.0418 34.2714 55.6353C34.9317 50.9027 35.3552 45.7364 35.6043 40.6929ZM58.4813 67.4064C52.751 65.1917 48.637 65.7395 46.5145 66.8864C44.4569 67.9982 44.5876 69.18 44.7629 69.5191C45.065 70.1033 46.6674 71.4951 51.57 71.0482C54.1632 70.8118 56.4916 69.5346 58.4813 67.4064Z" fill="white"/>
</svg>
